# xmcd CD database file
#
# Track frame offsets:
#	150
#	21142
#	38890
#
# Disc length: 810 seconds
#
# Revision: 0
# Processed by: cddbd v1.5.1PL0 Copyright (c) Steve Scherf et al.
# Submitted via: CDex 1.51
#
DISCID=1b032803
DTITLE=松 たか子 - 未来になる
DYEAR=2005
DGENRE=JPop
TTITLE0=未来になる
TTITLE1=愛のうた
TTITLE2=未来になる 〜Instrumental〜
EXTD=YEAR: 2005
EXTT0=
EXTT1=
EXTT2=
PLAYORDER=
